<svg xmlns="http://www.w3.org/2000/svg" aria-hidden="true" overflow="hidden" style="position:absolute;width:0;height:0"><defs><symbol id="icon-Arrow" viewBox="0 0 36 32"><path d="M35.414 14.586a2 2 0 0 1 0 2.828L22.686 30.142a2 2 0 1 1-2.828-2.828L31.172 16 19.858 4.686a2 2 0 1 1 2.828-2.828l12.728 12.728zM34 18H.476v-4H34v4z"/></symbol><symbol id="icon-crown" viewBox="0 0 39 32"><path d="M37.805 7.546c-.337-.306-.745-.502-1.178-.566s-.873.004-1.272.2l-8.417 4.107c-.037.022-.078.036-.12.041s-.085 0-.125-.014c-.04-.014-.078-.036-.11-.066s-.059-.066-.078-.108l-4.917-9.717c-.199-.402-.493-.737-.851-.97s-.766-.357-1.182-.357c-.416 0-.824.123-1.182.357s-.652.569-.851.97l-4.917 9.717c-.019.041-.046.078-.078.108s-.07.052-.11.066c-.04.014-.083.018-.125.014s-.083-.018-.12-.041L3.755 7.18c-.398-.198-.838-.27-1.271-.207s-.841.259-1.178.564c-.337.306-.589.709-.728 1.164s-.159.944-.057 1.412l4.25 19.855c.072.336.205.652.391.929s.422.51.692.684c.356.24.766.367 1.183.367.214-.002.426-.033.633-.092a40.736 40.736 0 0 1 23.75-.018c.303.096.621.124.934.081s.615-.155.888-.33.51-.409.698-.687c.188-.279.323-.596.396-.934l4.233-19.855c.106-.464.09-.951-.046-1.405s-.386-.857-.721-1.161zm-1.166 2.053-4.25 19.855a.424.424 0 0 1-.15.238.388.388 0 0 1-.267.037 42.554 42.554 0 0 0-24.833 0 .31.31 0 0 1-.263-.038c-.039-.026-.073-.06-.099-.101s-.045-.087-.055-.136L2.472 9.599a.417.417 0 0 1 .071-.313c.032-.044.072-.079.117-.104s.095-.039.146-.04l.133.037 8.433 4.125c.532.263 1.134.297 1.687.093s1.016-.63 1.296-1.193l4.917-9.717c.026-.058.067-.107.117-.141a.297.297 0 0 1 .334 0c.05.034.09.083.117.141l4.917 9.717c.28.563.743.989 1.296 1.193s1.156.171 1.687-.093l8.433-4.125c.057-.028.12-.037.182-.028s.12.039.168.083c.049.043.086.1.106.165s.024.135.011.202zm-10.75 13.934c-.028.271-.146.521-.33.703s-.422.284-.67.287h-.1a47.572 47.572 0 0 0-10.467 0c-.263.031-.526-.054-.732-.236s-.338-.447-.368-.736c-.023-.291.058-.581.226-.807s.41-.371.674-.403a46.798 46.798 0 0 1 10.867 0c.261.032.5.175.668.397s.251.507.232.795z"/></symbol><symbol id="icon-facebook-icon" viewBox="0 0 19 32"><path d="M17.64 1.245a41.42 41.42 0 0 0-4.468-.23c-4.948 0-8.023 3.151-8.023 8.224v3.444H.993a.735.735 0 0 0-.735.735v5.664a.733.733 0 0 0 .735.735h4.156v11.358a.735.735 0 0 0 .735.735h5.853a.735.735 0 0 0 .736-.735V19.817h4.143a.733.733 0 0 0 .729-.64l.731-5.664a.724.724 0 0 0-.177-.581.725.725 0 0 0-.554-.25h-4.874V9.8c0-1.427.287-2.023 2.072-2.023h3a.735.735 0 0 0 .735-.735V1.973a.733.733 0 0 0-.64-.729zm-.831 5.061-2.266.001c-3.174 0-3.541 1.995-3.541 3.494v3.619a.735.735 0 0 0 .734.736h4.776l-.543 4.193h-4.231a.733.733 0 0 0-.735.735v11.355H6.622V19.084a.735.735 0 0 0-.735-.735H1.732v-4.193h4.155a.735.735 0 0 0 .735-.735V9.24c0-4.228 2.45-6.753 6.552-6.753 1.484 0 2.825.081 3.637.152v3.668z"/></symbol><symbol id="icon-instagram-icon" viewBox="0 0 32 32"><path d="M16 8.923a7.075 7.075 0 0 0-6.539 4.369 7.075 7.075 0 0 0 9.246 9.246 7.082 7.082 0 0 0 4.369-6.539 7.077 7.077 0 0 0-7.077-7.077zm0 12.308a5.228 5.228 0 0 1-4.833-3.229 5.225 5.225 0 0 1 1.134-5.7 5.228 5.228 0 0 1 8.047.793c.575.86.882 1.871.882 2.906-.004 1.386-.556 2.714-1.537 3.694s-2.308 1.532-3.694 1.537zM22.769.923H9.231A8.307 8.307 0 0 0 .924 9.23v13.538a8.307 8.307 0 0 0 8.307 8.307h13.538a8.307 8.307 0 0 0 8.307-8.307V9.23A8.307 8.307 0 0 0 22.769.923zm6.462 21.846a6.46 6.46 0 0 1-6.462 6.462H9.231a6.46 6.46 0 0 1-6.462-6.462V9.231a6.46 6.46 0 0 1 6.462-6.462h13.538a6.46 6.46 0 0 1 6.462 6.462v13.538zM25.538 8a1.54 1.54 0 0 1-2.626 1.089 1.535 1.535 0 0 1-.333-1.677 1.542 1.542 0 0 1 1.422-.949 1.538 1.538 0 0 1 1.539 1.539z"/></symbol><symbol id="icon-mind" viewBox="0 0 29 32"><path d="M14.612.072c-1.145 0-2.215.522-3.127 1.376S9.793 3.492 9.142 4.933a18.01 18.01 0 0 0-.391.939 18.142 18.142 0 0 0-1.011-.131 14.909 14.909 0 0 0-1.15-.072c-1.12-.027-2.143.087-3.04.359-1.196.363-2.182 1.028-2.755 2.02s-.656 2.179-.372 3.396c.284 1.217.924 2.488 1.847 3.772.194.269.401.539.619.81-.214.264-.42.533-.618.809C1.348 18.119.708 19.39.424 20.607s-.201 2.404.372 3.396 1.559 1.658 2.755 2.02 2.616.444 4.19.287c.33-.033.667-.077 1.01-.131.122.317.252.631.392.941.651 1.441 1.431 2.631 2.343 3.485s1.982 1.376 3.127 1.376c1.145 0 2.215-.522 3.127-1.376s1.692-2.044 2.343-3.485c.14-.31.27-.624.392-.941a17.9 17.9 0 0 0 1.009.131c1.573.157 2.994.076 4.19-.287s2.182-1.028 2.755-2.02.656-2.179.372-3.396-.924-2.488-1.847-3.772a17.818 17.818 0 0 0-.618-.809c.214-.264.42-.534.619-.809.923-1.284 1.563-2.555 1.847-3.772s.201-2.404-.372-3.396-1.559-1.658-2.755-2.02c-.897-.272-1.92-.385-3.039-.359-.373.009-.757.033-1.15.072-.33.033-.667.077-1.01.131-.122-.317-.252-.63-.391-.939-.651-1.441-1.431-2.631-2.343-3.485S15.76.073 14.615.073zm0 1.274c.764 0 1.513.336 2.256 1.032s1.452 1.749 2.053 3.08c.098.217.191.436.279.657-1.46.325-3.007.823-4.588 1.488a27.09 27.09 0 0 0-4.587-1.488c.09-.226.183-.446.279-.658.601-1.331 1.31-2.384 2.053-3.08s1.492-1.031 2.256-1.031zM6.186 6.941a13.553 13.553 0 0 1 1.428.068c.232.023.47.053.711.088a27.024 27.024 0 0 0-1.005 4.717 27.01 27.01 0 0 0-3.583 3.229 15.801 15.801 0 0 1-.431-.571c-.852-1.185-1.409-2.326-1.641-3.318s-.147-1.808.235-2.469c.382-.662 1.047-1.143 2.021-1.438.639-.194 1.405-.298 2.266-.306zm16.852 0c.861.008 1.626.112 2.266.306.974.295 1.639.776 2.021 1.438s.466 1.478.235 2.469c-.231.991-.789 2.132-1.641 3.318-.14.194-.283.384-.431.571a27.13 27.13 0 0 0-3.582-3.229 27.056 27.056 0 0 0-1.005-4.718 14.236 14.236 0 0 1 1.763-.154c.125-.003.25-.004.375-.003zm-3.404.385c.339 1.053.619 2.214.829 3.457a34.473 34.473 0 0 0-4.237-2.446 24.633 24.633 0 0 1 3.408-1.01zm-10.044 0a24.76 24.76 0 0 1 3.407 1.01 34.599 34.599 0 0 0-4.236 2.445c.209-1.243.49-2.404.829-3.456zm5.022 1.668c1.037.457 2.089.989 3.138 1.595s2.037 1.252 2.951 1.921c.122 1.127.188 2.304.188 3.516s-.066 2.388-.188 3.514a32.84 32.84 0 0 1-6.09 3.516c-1.037-.457-2.09-.989-3.139-1.595s-2.036-1.251-2.95-1.92c-.122-1.127-.188-2.304-.188-3.515s.066-2.39.188-3.517a32.822 32.822 0 0 1 6.088-3.515zm.086 1.917-3.648 2.251 3.648 2.251 3.648-2.251-3.648-2.251zm-7.552 2.668a35.027 35.027 0 0 0 0 4.892 24.586 24.586 0 0 1-2.579-2.446 24.69 24.69 0 0 1 2.579-2.446zm14.932.001a24.77 24.77 0 0 1 2.578 2.445 24.666 24.666 0 0 1-2.578 2.445 34.992 34.992 0 0 0 0-4.891zm-11.85.572v4.445l3.831 2.364v-4.445l-3.831-2.365zm8.936.002-3.83 2.364v4.443l3.83-2.364v-4.443zM3.736 17.007a26.94 26.94 0 0 0 3.583 3.229c.214 1.701.556 3.29 1.005 4.716-.241.035-.478.064-.71.088-1.453.145-2.72.057-3.693-.238s-1.639-.776-2.021-1.438c-.382-.662-.466-1.478-.235-2.469s.789-2.132 1.641-3.318c.139-.193.283-.384.43-.57zm21.752 0c.15.191.295.381.43.57.852 1.185 1.409 2.326 1.641 3.318s.147 1.808-.235 2.469c-.382.662-1.047 1.143-2.021 1.438s-2.241.383-3.693.238a15.414 15.414 0 0 1-.709-.088 27.036 27.036 0 0 0 1.005-4.718 27.057 27.057 0 0 0 3.582-3.228zm-5.025 4.26a24.682 24.682 0 0 1-.829 3.457 24.781 24.781 0 0 1-3.408-1.011 35.272 35.272 0 0 0 4.236-2.446zm-11.702.001a35.248 35.248 0 0 0 4.235 2.446c-1.181.44-2.326.778-3.407 1.01a24.773 24.773 0 0 1-.829-3.456zm5.889.058.046.029.046-.029h-.092zm-.038 3.121a27.128 27.128 0 0 0 4.588 1.488c-.088.222-.181.442-.279.659-.601 1.33-1.31 2.384-2.053 3.08s-1.492 1.032-2.256 1.032c-.764 0-1.513-.336-2.256-1.032s-1.452-1.749-2.053-3.08a16.45 16.45 0 0 1-.279-.659 27.128 27.128 0 0 0 4.588-1.488z"/></symbol><symbol id="icon-phone-icon" viewBox="0 0 28 32"><path d="m25.655 22.957-.173-.216c-1.372-1.735-2.519-2.637-3.503-2.756-.851-.116-1.673.472-2.548 1.077l-.935.584a2.054 2.054 0 0 1-.327.132c-.547.155-1.927.245-2.708-.469-.909-.832-2.32-2.355-3.417-3.685-1.048-1.377-2.2-3.095-2.801-4.176-.508-.916-.083-2.197.201-2.672.056-.093.129-.185.211-.276l.824-.761c.012-.012.017-.027.028-.037.008-.008.021-.005.031-.012.744-.628 1.513-1.275 1.619-2.105.124-.976-.483-2.296-1.857-4.029l-.168-.216C9.281 2.249 7.995.6 6.147.872c-.727.108-1.376.356-2.045.776-.007.004-.011.012-.016.016s-.012.004-.017.008l-.932.691c-.009.005-.015.017-.024.025-.007.007-.017.008-.025.015a13.74 13.74 0 0 0-.323.28c-.945.843-2.992 3.289-1.596 7.815.901 2.923 2.76 6.333 5.388 9.883l-.025.021 1.449 1.805.012-.009c2.849 3.371 5.749 5.976 8.407 7.553 1.773 1.053 3.323 1.401 4.597 1.401 1.677 0 2.879-.603 3.481-.995l.379-.253c.043-.029.073-.071.104-.108l.825-.621c.009-.008.015-.019.024-.027.004-.004.011-.003.016-.007.587-.536.993-1.097 1.276-1.763.732-1.705-.579-3.339-1.445-4.42zm.465 4.002c-.22.517-.541.957-1.005 1.384l-1.228.924c-1.112.723-3.489 1.616-6.943-.435-2.657-1.577-5.583-4.244-8.461-7.712l-.779-.984c-2.711-3.595-4.617-7.037-5.517-9.955-1.169-3.793.304-5.828 1.291-6.707.1-.091.2-.175.299-.259l.004-.004.895-.663a4.067 4.067 0 0 1 1.628-.624c1.239-.187 2.247 1.12 2.987 2.069l.173.22C11 6.15 11.148 7.072 11.1 7.448c-.053.417-.688.952-1.248 1.423l-.079.067c-.003.003-.004.007-.007.009l-.012.007-.852.788c-.005.005-.008.012-.013.019s-.016.009-.021.016a3.007 3.007 0 0 0-.337.449c-.479.801-.931 2.457-.217 3.739.623 1.12 1.808 2.889 2.897 4.319 1.139 1.381 2.591 2.949 3.532 3.809.705.644 1.687.86 2.536.86.455 0 .872-.063 1.188-.152.167-.048.339-.117.516-.204.011-.005.016-.015.027-.021.005-.003.013-.001.019-.005l.989-.619c.032-.021.053-.049.08-.076l.012.013c.609-.423 1.304-.919 1.739-.847.385.047 1.26.417 2.799 2.36l.177.223c.749.935 1.776 2.215 1.297 3.333z"/></symbol><symbol id="icon-Star-1" viewBox="0 0 32 32"><path d="M6.693 0 17.35 10.184l14.321-3.491L21.487 17.35l3.491 14.321-10.657-10.184L0 24.978l10.184-10.657L6.693 0z"/></symbol><symbol id="icon-Star-2" viewBox="0 0 32 32"><path d="m24.979 0-3.491 14.321 10.184 10.657-14.321-3.491L6.694 31.671l3.491-14.321L.001 6.693l14.321 3.491L24.979 0z"/></symbol><symbol id="icon-Star-3" viewBox="0 0 30 32"><path d="m8.965 1.136 8.153 9.994L29.93 9.647 19.936 17.8l1.483 12.813-8.153-9.994L.453 22.102l9.994-8.153L8.964 1.136z"/></symbol><symbol id="icon-tower" viewBox="0 0 39 32"><path d="M11.984 10.581H-.169a.662.662 0 0 0-.675.648v3.887c0 .358.302.648.675.648h.675v14.899c0 .358.302.648.675.648h9.452c.373 0 .675-.29.675-.648V15.764h.675c.373 0 .675-.29.675-.648v-3.887a.662.662 0 0 0-.675-.648zM4.558 22.889v-1.296h4.051v-1.296H4.558v-1.296h5.401v8.421H4.558v-3.239h1.35v-1.296h-1.35zm5.401-5.183H3.883a.662.662 0 0 0-.675.648v9.717c0 .358.302.648.675.648h6.076v1.296H1.857V15.764h8.102v1.943zm1.35-3.239H.506v-2.591h10.803v2.591zM20.93 10.702V5.966a.67.67 0 0 0-.675-.667h-.675V1.964h1.35V.63h-7.427v1.334h4.726v3.335h-.675a.67.67 0 0 0-.675.667v4.736c-1.539.31-2.701 1.657-2.701 3.267v16.673a.67.67 0 0 0 .675.667h8.102a.67.67 0 0 0 .675-.667V13.969c0-1.61-1.162-2.957-2.701-3.267zm-2.7-4.069h1.35v4.002h-1.35V6.633zm-.675 5.336h2.701c1.117 0 2.026.898 2.026 2.001v.667H15.53v-.667c0-1.103.909-2.001 2.026-2.001zm4.726 15.339h-6.752v-1.334h2.701V24.64h-2.701v-8.67h6.752v11.338zm-6.752 2.668v-1.334h6.752v1.334h-6.752zM38.189 9.752H26.796a.643.643 0 0 0-.633.653v20.251c0 .361.283.653.633.653h11.393c.35 0 .633-.292.633-.653V10.405a.643.643 0 0 0-.633-.653zm-.633 20.251H27.428V11.058h10.128v18.945z"/><path d="M9.284 23.018H7.596v.829h1.688v-.829zM21.099 24.676h-1.688v1.658h1.688v-1.658zM18.989 23.018c1.629 0 2.954-1.302 2.954-2.902s-1.325-2.902-2.954-2.902c-1.629 0-2.954 1.302-2.954 2.902s1.325 2.902 2.954 2.902zm0-4.353c.815 0 1.477.651 1.477 1.451s-.662 1.451-1.477 1.451c-.814 0-1.477-.651-1.477-1.451s.662-1.451 1.477-1.451zM30.91 16.385h3.165c1.222 0 2.215-.93 2.215-2.073s-.994-2.073-2.215-2.073H30.91c-1.222 0-2.215.93-2.215 2.073s.994 2.073 2.215 2.073zm4.114-2.073c0 .49-.426.888-.949.888h-.95v-1.777h.95c.523 0 .949.399.949.888zm-4.114-.888h.95v1.777h-.95c-.523 0-.949-.399-.949-.888s.426-.888.949-.888zM30.91 23.018h3.165c1.222 0 2.215-1.116 2.215-2.487s-.994-2.488-2.215-2.488H30.91c-1.222 0-2.215 1.116-2.215 2.488s.994 2.487 2.215 2.487zm4.114-2.487c0 .588-.426 1.066-.949 1.066h-.95v-2.132h.95c.523 0 .949.478.949 1.066zm-4.114-1.066h.95v2.132h-.95c-.523 0-.949-.478-.949-1.066s.426-1.066.949-1.066zM30.91 28.822h3.165c1.222 0 2.215-1.116 2.215-2.487s-.994-2.488-2.215-2.488H30.91c-1.222 0-2.215 1.116-2.215 2.488s.994 2.487 2.215 2.487zm4.114-2.487c0 .588-.426 1.066-.949 1.066h-.95v-2.132h.95c.523 0 .949.478.949 1.066zm-4.114-1.066h.95v2.132h-.95c-.523 0-.949-.478-.949-1.066s.426-1.066.949-1.066z"/></symbol></defs></svg>